<?xml version="1.0" encoding="UTF-8"?>
<svg id="_レイヤー_2" data-name="レイヤー 2" xmlns="http://www.w3.org/2000/svg" viewBox="0 0 159.68 92.38">
  <defs>
    <style>
      .cls-1 {
        fill: #f0b822;
      }
    </style>
  </defs>
  <g id="logo">
    <g>
      <path class="cls-1" d="M26.23,43.15c-.13,8.96.3,18.57-2.76,27.15-2.88,8.05-10,14.94-19.11,12.65-4.97-1.25-6.12,6.62-1.2,7.86,10.79,2.71,20.92-4.07,25.85-13.41,5.62-10.63,4.95-23.45,5.12-35.11.07-5.11-7.83-4.19-7.9.86h0Z"/>
      <path class="cls-1" d="M45.26,5.08c-3.03-6.84-12.16-6.46-16.22-.74-2.2,3.1-2.58,6.98-2.64,10.67-.08,5-.09,10-.17,15s7.81,4.18,7.9-.86c.07-4.37.13-8.74.16-13.11.01-1.78-.01-3.66.51-5.39.09-.29,2.32-4.34,3.08-2.64,2.07,4.66,9.46,1.76,7.38-2.93h0Z"/>
      <path class="cls-1" d="M11.65,57.51c5.11,0,4.2-7.9-.86-7.9s-4.2,7.9.86,7.9h0Z"/>
      <path class="cls-1" d="M23.75,50.54c2.79-4.05,8.22-5.94,12.85-3.75s6.12,7.35,6.96,11.8c1.71,9.09,1.58,18.79,8.26,26s18.33,10.26,27.19,5.24c4.87-2.75,8.06-7.22,10.88-11.92,1.28-2.13,2.48-4.27,3.27-6.64.33-.99.53-3.24.94-3.81l-4.7,1.2.6.25-2.37-3.22c.39,6.12-1.01,12.24,1.87,18.01,2.44,4.89,8.49,8.77,13.97,6.31,4.79-2.15,6.39-8.09,7.23-12.8.41-2.3.64-4.62.84-6.94.08-.91.17-1.82.21-2.73.03-.63.62-2.26-.02-1.1l-7.34-.11c-.57-1.03-.03.35-.08.89-.09,1.05.01,2.21,0,3.27-.02,2.55-.08,5.09-.07,7.64.01,4.76.78,9.86,5.61,12.06,9.8,4.46,15.61-6.18,17.11-13.93.67-3.44,3.55-15.76,8.63-8.35,3.44,5.01,1.67,12.46,4.7,17.94,2.26,4.09,6.4,7.09,11.25,6.42,4.23-.59,7.92-3.88,8.13-8.24.25-5.07-7.61-6.3-7.86-1.2-.15,3.06-3.41.92-4.33-.42-1.45-2.1-1.64-4.79-1.96-7.24-.62-4.75-1.25-9.53-4.53-13.27-5.67-6.45-14.38-4.65-18.6,2.32-1.82,3.01-2.46,6.34-3.09,9.75-.45,2.44-.91,7.62-3.76,8.66-4.7,1.71-3.38-8.49-3.35-11.07.02-2.28.74-6.04-.42-8.15-1.7-3.08-5.6-3.31-7.34-.11-.72,1.33-.56,3.34-.67,4.78-.26,3.23-.52,6.52-1.27,9.69-.41,1.73-.63,3.41-2.39,4.17-2.81,1.2-4.04-2.56-4.44-4.97-.67-4.04.12-8.1-.14-12.13-.09-1.38-1.12-2.7-2.37-3.22l-.6-.25c-1.59-.65-3.65-.23-4.7,1.2-2.03,2.77-2.25,6.89-3.92,9.95-2.77,5.07-6.58,10.82-12.73,11.74s-12.48-2.46-15.51-7.65c-2.52-4.32-2.91-9.51-3.55-14.35-1.12-8.37-3.19-17.82-11.29-22.2s-18.29-1.75-23.35,5.58c-2.89,4.19,3.34,9.12,6.26,4.9h0Z"/>
      <path class="cls-1" d="M56.71,64.09c-.03-.37-.05-.74-.05-1.1,0-2.49.84-5.02,2.56-6.83,2.71-2.85,7.14-3.99,11.07-3.79,1.94.1,3.86.65,5.63,1.59,5.29,2.82,7.07,7.65,5.52,13.03-1.06,3.66-3.42,7.02-6.76,8.88-3.34,1.86-7.65,2.07-10.96.16-2.3-1.32-3.98-3.52-5.18-5.89-.96-1.89-1.66-3.95-1.84-6.05Z"/>
      <path class="cls-1" d="M124.27,80.6c2.61.04,5.22.07,7.82.11,2.15.03,3.73-2.43,3.52-4.38-.26-2.35-2.23-3.49-4.38-3.52-2.61-.04-5.22-.07-7.82-.11-2.15-.03-3.73,2.43-3.52,4.38.26,2.35,2.23,3.49,4.38,3.52h0Z"/>
    </g>
  </g>
</svg>