<?xml version="1.0" encoding="UTF-8"?>
<svg id="_レイヤー_1" data-name="レイヤー 1" xmlns="http://www.w3.org/2000/svg" viewBox="0 0 115 104">
  <defs>
    <style>
      .cls-1 {
        fill: #a39482;
      }
    </style>
  </defs>
  <path class="cls-1" d="M13.37,98.72v-22.06L81.77,8.39c1.04-1.04,2.21-1.82,3.5-2.34,1.3-.52,2.6-.78,3.89-.78,1.38,0,2.7.26,3.96.78s2.36,1.3,3.31,2.34l7.27,7.27c1.04.95,1.82,2.05,2.34,3.31s.78,2.57.78,3.96c0,1.3-.26,2.6-.78,3.89-.52,1.3-1.3,2.47-2.34,3.5L35.44,98.72H13.37ZM23.76,88.34h7.27l51-50.87-3.63-3.76-3.76-3.63-50.87,51v7.27ZM78.39,33.7l-3.76-3.63,7.4,7.4-3.63-3.76ZM65.29,98.72c6.4,0,12.33-1.6,17.78-4.8,5.45-3.2,8.18-7.66,8.18-13.37,0-3.11-.82-5.8-2.47-8.05-1.64-2.25-3.85-4.2-6.62-5.84l-7.66,7.66c1.99.87,3.55,1.82,4.67,2.86s1.69,2.16,1.69,3.37c0,1.99-1.58,3.79-4.74,5.39s-6.77,2.4-10.84,2.4c-1.47,0-2.7.5-3.7,1.49-.99.99-1.49,2.23-1.49,3.7s.5,2.7,1.49,3.7c.99.99,2.23,1.49,3.7,1.49ZM16.36,59.01l7.79-7.79c-1.73-.69-3.09-1.41-4.09-2.14-.99-.74-1.49-1.49-1.49-2.27,0-1.04.78-2.08,2.34-3.11,1.56-1.04,4.85-2.64,9.86-4.8,7.61-3.29,12.68-6.27,15.18-8.95,2.51-2.68,3.76-5.71,3.76-9.08,0-4.76-1.9-8.54-5.71-11.36-3.81-2.81-8.83-4.22-15.05-4.22-3.89,0-7.38.69-10.45,2.08s-5.43,3.07-7.07,5.06c-.95,1.12-1.34,2.38-1.17,3.76.17,1.38.82,2.51,1.95,3.37,1.12.95,2.38,1.34,3.76,1.17,1.38-.17,2.55-.74,3.5-1.69,1.21-1.21,2.55-2.08,4.02-2.6s3.29-.78,5.45-.78c3.55,0,6.16.52,7.85,1.56,1.69,1.04,2.53,2.25,2.53,3.63,0,1.21-.76,2.31-2.27,3.31-1.51.99-5,2.75-10.45,5.26-6.92,3.03-11.72,5.78-14.41,8.24-2.68,2.47-4.02,5.52-4.02,9.15,0,2.77.74,5.13,2.21,7.07,1.47,1.95,3.46,3.66,5.97,5.13Z"/>
</svg>