<?xml version="1.0" encoding="UTF-8"?>
<svg id="_レイヤー_2" data-name="レイヤー 2" xmlns="http://www.w3.org/2000/svg" viewBox="0 0 43 43">
  <defs>
    <style>
      .cls-1 {
        fill: #373741;
      }
    </style>
  </defs>
  <g id="footer">
    <path class="cls-1" d="M12.6.15c-2.29.11-3.85.47-5.22,1.01-1.41.55-2.61,1.29-3.8,2.49-1.19,1.2-1.93,2.4-2.47,3.81-.53,1.37-.89,2.93-.99,5.22C.01,14.97,0,15.7,0,21.54c.01,5.84.04,6.57.15,8.86.11,2.29.47,3.85,1.01,5.22.55,1.41,1.29,2.61,2.49,3.8,1.2,1.19,2.39,1.92,3.81,2.47,1.37.53,2.93.89,5.22.99,2.29.1,3.03.12,8.86.11,5.84-.01,6.57-.04,8.86-.15,2.29-.11,3.85-.48,5.21-1.01,1.41-.55,2.61-1.29,3.8-2.49,1.19-1.2,1.93-2.4,2.47-3.81.53-1.37.89-2.93.99-5.22.1-2.29.12-3.03.11-8.87-.01-5.84-.04-6.57-.15-8.86-.11-2.29-.47-3.85-1.01-5.22-.55-1.41-1.29-2.61-2.49-3.8s-2.4-1.93-3.81-2.47c-1.37-.53-2.93-.89-5.22-.99C28.03.02,27.3,0,21.46,0c-5.84.01-6.57.04-8.86.15M12.85,39.02c-2.1-.09-3.23-.44-3.99-.73-1-.39-1.72-.85-2.48-1.6s-1.22-1.47-1.61-2.47c-.29-.76-.65-1.9-.75-3.99-.11-2.27-.13-2.95-.14-8.69s0-6.42.11-8.69c.09-2.09.44-3.23.73-3.99.39-1.01.85-1.72,1.6-2.48s1.47-1.22,2.47-1.61c.76-.3,1.89-.65,3.99-.75,2.27-.11,2.95-.13,8.69-.14,5.74-.01,6.42,0,8.69.11,2.09.09,3.23.44,3.99.73,1,.39,1.72.85,2.48,1.6s1.22,1.47,1.61,2.47c.3.76.65,1.89.75,3.99.11,2.27.13,2.95.14,8.69.01,5.74,0,6.42-.11,8.69-.09,2.1-.44,3.23-.73,3.99-.39,1-.85,1.72-1.6,2.48-.75.76-1.47,1.22-2.47,1.61-.76.3-1.9.65-3.99.75-2.27.11-2.95.13-8.69.14-5.74.01-6.42-.01-8.69-.11M30.37,10.01c0,1.42,1.16,2.58,2.58,2.58,1.42,0,2.58-1.16,2.58-2.58,0-1.42-1.16-2.58-2.58-2.58,0,0,0,0,0,0-1.42,0-2.58,1.16-2.57,2.58M10.46,21.52c.01,6.1,4.96,11.03,11.06,11.02,6.1-.01,11.03-4.96,11.02-11.06-.01-6.1-4.96-11.03-11.06-11.02-6.1.01-11.03,4.96-11.02,11.06M14.33,21.51c0-3.96,3.19-7.17,7.15-7.18,3.96,0,7.17,3.19,7.18,7.15,0,3.96-3.19,7.17-7.15,7.18-3.96,0-7.17-3.19-7.18-7.15h0"/>
  </g>
</svg>