<?xml version="1.0" encoding="UTF-8"?>
<svg class="handwriting" xmlns="http://www.w3.org/2000/svg" viewBox="0 0 411.98 238.84">
  <defs>
    <style>
      .cls-1 {
        fill: #f0b822;
      }
    </style>
  </defs>
  <g id="text" class="handwriting_text" data-name="レイヤー１">
    <g>
      <path class="cls-1" d="M68.05,111.67c-.38,23.96.98,49.93-8.05,72.62-6.84,17.18-25.03,37.04-45.77,30.96-5.31-1.56-11.09-.17-13.47,5.34-1.99,4.6,0,11.91,5.34,13.47,29.76,8.73,57.53-9.97,70.38-36.33,13.19-27.07,11.5-59,11.96-88.28.09-5.54-6.29-9.63-11.3-9.08-6.08.67-8.99,5.74-9.08,11.3h0Z"/>
      <path class="cls-1" d="M117.11,13.3C113.78,3.74,103.97-.87,94.29.13s-17.67,7.27-21.84,16.13-4.03,18.41-3.98,27.64c.07,11.27-.22,22.53-.41,33.8-.09,5.54,6.29,9.63,11.3,9.08,6.08-.67,8.99-5.74,9.08-11.3.15-8.74.35-17.49.44-26.23.06-5.73-.29-11.48.42-17.18.33-2.65.74-5.3,1.97-7.68.72-1.39.33-.86,1.35-2.07.55-.66,1.85-1.26.84-.9.03-.01,3.03-1.06,1.43-.67.72-.14,1.44-.24,2.17-.29-.84-.11-.65-.1.57.03,1.32.18.45-.46,1.42.48-.75-.73-1.62-1.94-.98-.11,4.34,12.47,23.39,4.88,19.05-7.56h0Z"/>
      <path class="cls-1" d="M30.51,148.75c5.54,0,9.64-6.23,9.08-11.3-.66-6.01-5.74-9.08-11.3-9.08s-9.64,6.23-9.08,11.3c.66,6.01,5.74,9.08,11.3,9.08h0Z"/>
      <path class="cls-1" d="M61.69,130.74c8.05-12.58,27.16-16.69,38.79-5.81,12.46,11.65,12.82,30.5,15.09,46.93,2.81,20.33,8.61,40.06,25.35,53.32,19.16,15.19,47.13,18.64,67.7,4.33,11.6-8.08,19.07-20.33,26.03-32.31,2.93-5.05,5.24-10.32,6.79-15.96.45-1.64.87-3.29,1.3-4.93.1-.39.73-2.53.23-.91,1.08-3.48,1.72-1.54-1.89.95-2.57.65-5.15,1.3-7.72,1.95l-1.19-.38-4.12-3.23.29.48-2.01-5.07c.18-1.46.19-1.47.04-.03-.11.9-.21,1.81-.28,2.72-.14,1.92-.09,3.85-.11,5.77-.05,4.36-.2,8.72-.08,13.08.23,8.44,1.24,17.2,5.18,24.8,7.63,14.74,27.66,25.47,41.92,12.3,9.49-8.77,12.04-23.01,13.66-35.24.69-5.24,1.15-10.51,1.55-15.77.13-1.72.24-3.44.4-5.15.18-1.93,1.36-4.28-.28-.66l-3.23,4.12.06-.05-10.24,1.23.07.04-5.46-5.63c-1.06-2.27-.28-2.23-.34-.1-.04,1.54.09,3.1.1,4.64.03,4.37-.03,8.75-.08,13.12-.11,9.84-1.39,20.89,1.98,30.29,4.85,13.57,18.81,18.16,31.84,14.16,9.11-2.8,15.77-9.89,19.59-18.44,3.42-7.65,4.68-16.13,6.17-24.31,1.26-6.92,3.4-16.44,9.55-20.09,7.18-4.25,12.9,5.37,14.63,11.6,3.19,11.55,2.07,23.77,6.79,35.04,4.99,11.91,15.53,22.12,29.22,21.24,13.05-.83,23.44-10.92,23.02-24.15-.18-5.53-6.1-9.65-11.3-9.08-5.87.64-9.26,5.75-9.08,11.3-.04-1.38-.95.5.24-.47-1.76,1.43-1.48,1.45-3.68,1.98.76-.19.23-.02-.83,0,1.09-.01-1.19-.09-1.46-.16-.85-.24-2.59-1.38-3.75-2.61-5.95-6.39-6.12-16.9-7.09-25.01-1.31-10.99-3.72-22.34-11.43-30.76s-19.2-12.93-30.46-8.97c-19.02,6.69-22.67,27.62-26.05,44.82-.75,3.84-1.28,6.35-2.48,9.48-.51,1.34-1.08,2.68-1.76,3.94.82-1.52-.88,1.3-.88,1.3-.21.28-2.09,2.41-.86,1.2-2.02,1.97-3.37,2.75-6.02,3.07-4.46.54-4.96-1.65-5.37-5.85-.92-9.45-.14-19.23-.07-28.72.06-8.04,1.53-17.06-6.6-21.71-3-1.72-7.66-.85-10.24,1.23-4.05,3.26-4.3,7.7-4.66,12.39-.44,5.73-.88,11.46-1.59,17.16s-1.79,12.78-3.46,17.4c-.85,2.36-1.89,4.69-3.43,6.69-1.25,1.62-3.87.89-6.25-.9-6.25-4.7-6.74-13.82-7.04-20.94-.2-4.77-.1-9.53.02-14.3.1-3.94,1.19-8.1-.32-11.91-3.98-10.04-17.62-9.01-21.38.44-1.09,2.74-1.72,5.72-2.47,8.57-.27,1.02-.55,2.03-.79,3.05-.44,1.88.25-.93.32-1.07-.52,1.21-.91,2.5-1.39,3.73-3.12,7.96-7.98,15.56-13.12,22.35-4.57,6.04-10.05,11.4-17.23,14.14-13.73,5.25-30.65-.69-40.48-10.97-9.16-9.59-11.67-22.34-13.46-35.16-1.96-13.97-3-28.58-8.73-41.66-6.9-15.73-20.31-28.29-37.92-30.05-16.66-1.67-34.6,5.07-43.85,19.52-2.98,4.66-2.9,10.75,1.75,14.39,4.04,3.16,11.39,2.93,14.39-1.75h0Z"/>
      <path class="cls-1" d="M146.61,165.75c-.08-.95-.12-1.9-.12-2.85.02-6.43,2.17-12.98,6.6-17.64,6.99-7.35,18.39-10.32,28.52-9.8,5,.26,9.96,1.67,14.5,4.1,13.63,7.29,18.22,19.77,14.22,33.68-2.72,9.46-8.81,18.13-17.41,22.94-8.59,4.81-19.71,5.34-28.24.42-5.93-3.42-10.26-9.1-13.35-15.21-2.48-4.89-4.27-10.19-4.73-15.63Z"/>
      <path class="cls-1" d="M320.68,208.4c6.72.09,13.44.18,20.16.28,5.54.08,9.63-6.28,9.08-11.3-.67-6.07-5.74-9-11.3-9.08-6.72-.09-13.44-.18-20.16-.28-5.54-.08-9.63,6.28-9.08,11.3.67,6.07,5.74,9,11.3,9.08h0Z"/>
    </g>
  </g>
</svg>