<?xml version="1.0" encoding="UTF-8"?>
<svg id="_レイヤー_2" data-name="レイヤー 2" xmlns="http://www.w3.org/2000/svg" viewBox="0 0 421.76 241.3">
  <defs>
    <style>
      .cls-1 {
        opacity: .27;
      }
    </style>
  </defs>
  <g id="logo">
    <g class="cls-1">
      <path d="M123.93,20.36c-1.7-14.14-17.27-24.18-30.88-18.96-11.85,4.55-18.64,18.98-19.91,30.88-1.73,16.34-1.3,33.19-1.46,49.6-.15,15.81-.06,31.62-.11,47.43-.08,24.36-1.92,51.09-16.84,71.42-.97,1.32-1.97,2.61-3.02,3.86.27-.32-3.09,3.26-1.23,1.5-1.47,1.39-3.12,2.62-4.79,3.77-4.14,2.84-9.11,5.2-14.67,6.69,1.56-.42-2.55.5-2.23.45-1.24.2-2.5.36-3.75.42-3.55.16,1.63.34-1.7-.1-.68-.09-1.24.23-1.28-.29.03.39,1.14.82,1.17,1.43.13,2.47-.18-1.44-.19-1.55-.23-2.65-.05-5.32-.13-7.97-.43-13.23,4.23-25.11,7.99-37.64,1.36-4.52,2.77-9.06,4.71-13.37s3.78-7.05,6.81-9.42c3.33-2.61,7-3.68,11.45-6.09,6.25-3.38,11.46-7.52,16.31-12.73,1.01-1.09,1.97-2.21,2.91-3.36-.62.75,3.21-3.69,1.55-2.11.84-.8,1.85-1.55,2.85-2.14-1.87,1.11,1.56-.57,1.62-.59.97-.38,2.84-.81,5.42-.99s3.96-.05,7.13.51c2.86.5,3.26.61,5.53,1.49,1.09.42,2.17.88,3.21,1.39.17.08,3.18,1.96,1.29.68,1.39.94,2.69,1.98,3.92,3.11-1.87-1.72.44.52.68.8.87,1.03,1.68,2.12,2.43,3.24.18.26,1.95,3.17.65.88.52.92.99,1.88,1.44,2.84.94,1.99,1.76,4.03,2.5,6.09,1.95,5.47,2.57,8.17,3.58,12.87,4.06,19.03,5.24,39.89,14.25,57.45,6.03,11.77,15.35,21.25,28.03,25.74,13.45,4.76,27.94,4.49,41.44.04,28.79-9.5,40.14-37.54,51.2-63.07-7.25-2.08-14.49-4.16-21.74-6.24-2.93,14.79-2.21,30.65,3.53,44.72,4.73,11.6,13.77,22.96,27.24,23.51s23.02-9.87,27.42-21.79c5.21-14.12,5.24-29.02,7.04-43.77-6.79,1.72-13.58,3.43-20.37,5.15,1.32,1.9.73,6.03.16,9.25-.92,5.19-2.32,10.28-2.74,15.54-.77,9.76.24,20.65,6.87,28.41,7.57,8.87,19.88,11.16,30.44,6.49,11.7-5.17,17.92-16.02,21.01-27.92,2.39-9.23,2.72-18.22,6.83-26.74,1.49-3.09,3.22-5.8,5.77-7.31,2.27-1.35,4.93-1.5,7.89.22s4.27,3.86,5.16,6.14c.28.73.56,1.5.75,2.26-.42-1.68-.04.31,0,.55.36,2.55.47,5.1.53,7.67.1,4.23-.25,8.66.41,12.85.7,4.42,3.26,7.98,4.88,12.05,4.18,10.44,9.18,20.4,20.6,24.34,13.98,4.82,27.08-3.73,35.87-14.04,3.95-4.63,2.81-12.4-1.95-16.01-25.93-19.63-61.51-24.64-93.03-19.49l12.51,13.05c6.25-32.23-16.4-61.68-45.13-73.5-31.01-12.76-67.46-9.06-99.59-2.83-13.36,2.59-27.78,7.25-36.06,18.85-8.95,12.53-8.59,30.3,1.49,42.17,11.6,13.66,32.49,21.46,46.37,6.82,7.64-8.06,15.05-21.39,14.45-32.81-.98-18.78-24.69-21.84-37.74-13.63-14.85,9.34-9.99,35.2,7.92,37.23,14.58,1.65,18.04-20.89,3.44-22.54-2.89-.33,1.54,1.08,2.44,1.87-.79-.7-.31-1.45.02.15.48,2.35-.02.48.02.05-.25,2.93.72-1.93-.21.85-.16.48-1.15,1.13-1.22,1.46.37-1.84,1.35,0,.13-.1,2.61.22-1.26-.07,1.5-.52.37-.06,3.57-.2,1.76-.22,1.39.01.71.54.49-.13l1,.39c-.43-.18-.79-.46-1.06-.84-.24-.66-.93-2.25-1.22-2.81.41.79-.64,1.55.04-.32.06-.16-.56,3.05-.23,1.65s-.75,2.12-.65,1.88c-.74,1.95-1.63,3.84-2.6,5.68-1.32,2.51-2.98,4.8-5.31,7.65-.72.88,1.76-.38.01,0,.66-.15-.57.48-.3.54-1.96-.39-3.43-.84-5.42-2.07-3.51-2.17-6.38-4.41-7.58-7.03-1.32-2.86-1.67-6.08-.88-8.58,1.04-3.35,2.91-4.9,5.49-6.9,2.21-1.71,6.69-3.49,10.58-4.67,8.49-2.57,19.9-3.64,29.55-4.81,22.2-2.7,45.66-3.9,66.56,5.46,18.67,8.36,33.52,26.91,29.39,48.18-1.35,6.97,5.4,14.22,12.51,13.05,25.71-4.2,55.17-1.38,76.5,14.77-.65-5.34-1.3-10.67-1.95-16.01-2.18,2.56-5.39,6.15-8.93,6.71-1.94.3-3.22-.98-4.1-2.05-1.6-1.96-1.07-1.28-1.9-3.19-.72-1.66-1.36-3.33-2-5.02-1.2-3.16-3.17-6.03-4.25-9.21.94,2.78.22-.31.19-1.24-.04-1.04-.06-2.08-.08-3.11-.04-2.16-.04-4.32-.08-6.47-.1-4.46-.56-8.68-1.71-13.01-2.47-9.32-9.16-17.35-17.72-21.75-9.58-4.93-20.98-4.23-30.06,1.41-8.03,4.99-13.34,13.92-16.45,22.65s-3.49,18.38-6.34,27.32c-1.16,3.62-2.79,7.04-5.72,9.11-2.27,1.6-3.84,2.04-5.47,1.07.19.11-.82-1.8-.53-.89-.76-2.37-.93-2.04-1.22-4.56-.49-4.16,0-7.75.86-12.2,2.34-12.22,4.87-23.98-2.77-34.98-5.55-7.99-19.2-4.44-20.37,5.15-1.38,11.35-1.46,22.91-4.16,34.07-.44,1.81-.67,2.55-1.49,4.71-.31.82-.66,1.62-1.01,2.42-.13.3-1.23,2.55-.6,1.44-.5.88-1.14,1.7-1.78,2.48-1.23,1.51,1.02-.85-.35.43-.59.55-2.17,1.25-.7.58-1.75.79.16.14-1,.2-1.65.08.23.09.25.08.73-.24-1.56-.63-.31.08-.67-.38-1.31-.91-1.89-1.41-2.6-2.25.35.57-.91-1-2.61-3.26-3.45-5.24-4.94-9.47-3.45-9.85-3.25-20.29-1.25-30.41,2.54-12.84-16.65-17.99-21.74-6.24-8.93,20.61-17.07,44.65-40.02,51.34-8.6,2.51-19.2,2.12-27.64-2.33-3.75-1.98-6.18-4.25-8.57-7.51-.61-.83-1.18-1.7-1.74-2.57-1.83-2.83.89,2.08-.58-1.01-1.11-2.32-2.16-4.63-3.06-7.04-3.33-9.01-4.45-15.93-6.29-26.2-1.9-10.62-3.72-21.27-6.73-31.64-2.54-8.74-6.33-17.68-12.41-24.58-7.52-8.52-17.59-13.55-28.74-15.5-11.54-2.02-25.09-.41-34.19,7.56-4.28,3.75-7.21,8.72-11.63,12.32-1.05.86-2.14,1.67-3.27,2.42.06-.04-3.49,2.07-1.6,1.04-2.5,1.36-5.18,2.34-7.72,3.62-10.91,5.48-18.41,14.48-22.96,25.72-4.49,11.11-7.69,23.15-10.94,34.66-2.14,7.58-3.1,14.9-2.71,22.79.3,6.11-.36,12.46,1.96,18.28,5.06,12.67,20,14.86,31.81,12.29,12.33-2.69,24.44-8.6,33.3-17.71,8.81-9.06,15.2-21.09,19.21-33,10.48-31.12,7.79-64.87,7.92-97.19.07-18.05-.12-36.29,1.32-54.3.45-5.6,1.9-10.52,5.73-14.48-.91.94,1.04-1.79.14.11-.46.26-.94.32-1.45.18,1.33.24,1.51.25.56,0,3.07,1.87-1.28-1.45,1.45.91-.46-.26-.74-.66-.85-1.18.52,1.29.55,1.39.08.32,1.76,14.58,24.43,12.11,22.67-2.47h0Z"/>
    </g>
  </g>
</svg>