<?xml version="1.0" encoding="UTF-8"?>
<svg id="_レイヤー_2" data-name="レイヤー 2" xmlns="http://www.w3.org/2000/svg" viewBox="0 0 434.72 243.94">
  <defs>
    <style>
      .cls-1 {
        fill: none;
        stroke: #e61f19;
        stroke-miterlimit: 10;
        stroke-width: 25px;
      }
    </style>
  </defs>
  <g id="text-path" class="handwriting_text_path">
    <path id="mask-path" class="handwriting_mask_line" d="M132.98,28.41s-10.14-15.09-20.14-15.82-15.34,2.82-17.39,13.45.37,30.99.18,41.92,3.96,70.74-.18,88.63-4.85,40.98-16.74,48.85-11.73,18.54-26.87,20.84-18.54,1.83-26.07,0-12.11-3.38-13.22-4.04,17.06-70.03,31.23-81.39,37.65-21.78,42.53-25.24,15.89-13.02,32.9-.01,20.63,31.05,23.99,59.17,15.96,41.98,23.73,46.5,26.62,14.09,39.35,8.44,21.68-11.47,27.81-20.98,15.13-28.72,17.12-36.48,1.1-6.87,2.87-17.06-4.39,49.36,3.15,58.63,8.4,15.56,19.46,12.8,11.05-5.97,13.26-14.43,6.66-62.76,6.66-68.52-2.22,84.39,8.42,84.95,19.33.04,23.83-12.08,2.47-12.42,7.43-27.2,6.68-21.88,16.22-26.03,11.78-6.7,21.59,6.69,8.56,35.68,10.84,41.71,1.17,15.77,10.41,16.17,17.69,3.21,20.53-1.62,5.91-13.77,6.36-20.2-92.6-54.49-92.6-54.49l-13.59,43.71,44.89,5.49h7.09l-21.16-74.01-129.5,28.65s6.82,23.33-4.11,31.9-22.74,11.52-28.65,2.95-7.09-13.67-8.27-19.39-2.36-15.17,5.91-18.71,30.13-4.43,31.6-.59-3.25,9.11-15.36,18.44-16.31,10.79-22.45,13.46"/>
    
  </g>
</svg>