<?xml version="1.0" encoding="UTF-8"?>
<svg id="_レイヤー_2" data-name="レイヤー 2" xmlns="http://www.w3.org/2000/svg" viewBox="0 0 416.67 239.56">
  <defs>
    <style>
      .cls-1 {
        opacity: .29;
      }

      .cls-2 {
        fill: #989898;
      }
    </style>
  </defs>
  <g id="logo">
    <g class="cls-1">
      <path class="cls-2" d="M121.47,13.43c-5.84-16.77-28.52-16.89-39.54-5.6s-9.67,28.97-9.82,43.96c-.19,17.99-.43,35.98-.59,53.97-.18,20.21,1.32,41.2-2.93,61.07-2.64,12.33-5.76,23.92-14.25,33.55-2.44,2.77-2.24,2.5-4.45,4.5-1.44,1.31-2.9,2.62-4.38,3.89-5.21,4.48-10.56,6.29-17.21,6.82-3.2.25-3.83.27-7.05-.09-1.24-.14-2.46-.34-3.69-.56-.52-.09-1.03-.24-1.54-.35-1.3-.27,2.15.97.49.1,2.35,1.23,3.57,2.49,4.53,4.58-.73-1.59.13,1.51.29,1.26.11-.17-.14-1.51-.15-1.75-.1-2.11-.32,2.58.02-.22,1.07-8.85,3.05-17.44,5.4-26.04.36-1.31.73-2.63,1.1-3.94-.02.08.23-.8.69-2.36.78-2.66,1.59-5.31,2.41-7.95,1.56-5.01,3.18-10,4.86-14.97,2.17-6.41,5.34-12.84,7.08-19.35.07-.26.31-.49.36-.75l-5.74,4.16h-1.05c-.08.3-1.4-.73.09.09,2.86,1.58,6.89,2.7,10.16,2.32,7.38-.84,11.67-8.12,15.64-13.61,4.39-6.05,6.78-9.55,13.22-13.05,5.76-3.13,12.33-4.72,18.79-3.31-1.91-.42.27.07.7.22.77.27,1.54.54,2.29.84s1.48.65,2.22.98c.46.2.89.46,1.34.68,1.08.53-1.58-1.1.09.04.97.67,1.94,1.33,2.86,2.07.52.42,2.32,2.06,1.9,1.64.59.59,3.88,4.93,4.39,5.82,4.2,7.28,5.7,15.95,7.17,24.11,1.35,7.47,2.23,15,3.23,22.52,1.71,12.87,5.72,23.41,12.83,34.32,4.08,6.27,9.21,12.34,15.49,16.48,7.15,4.71,15.62,6.12,23.75,8.37,17.31,4.78,34.63-1.63,47.31-13.88,10.7-10.33,17.7-23.1,23.44-36.71,2.24-5.31,3.93-10.61,5.5-16.14l-2.14,4.96-1.45,1.39-5.26,2.09.33-.04-5.37-.81.35.16-4.27-3.36c-.59-.63-1.61-3.62-.86-.66.35,1.39.16-2.38-.02.04-.14,1.93-.24,3.86-.35,5.8-.32,5.7-.55,11.45-.22,17.16s1.2,11.2,3.3,16.27c2.61,6.3,7.14,10.65,12.51,14.71,8.41,6.35,17.91,8.9,27.47,3.46,11.43-6.5,15.66-18.87,16.76-31.29.56-6.33,1.22-12.66,1.96-18.97.31-2.67.63-5.33,1.02-7.99.14-.96.35-1.92.45-2.88.22-2.11-.28.77-.34.91l-3.36,4.27.06-.04c-4.97-.69-9.94-1.39-14.91-2.08l.05.06-2.09-5.26c.1.47-.06,1.02.07,1.47.09.33-.03,2.19,0,.1s-.02.69-.03,1.13c-.11,4.07-.21,8.15-.24,12.23-.07,8.72.04,17.55,1.37,26.19,1.26,8.23,3.54,17.98,11.26,22.52,11.3,6.64,26.88,2.74,35.44-6.54s10.46-23.32,12.81-35.11c.64-3.22,1.44-6.28,2.64-9.33,1-2.54,2.49-5.48,3.36-6.73.65-.93,1.84-1.89.29-.62.51-.42,1.03-.83,1.57-1.2.33-.22,2.3-1.36,1.05-.71-1.16.61,1.56-.61,2.07-.81,1.84-.73.66-.24.15-.13.51-.11,1.05-.21,1.57-.24,1.55-.09,1.1-.09,1.7.03,1.57.33,3.32,1.6,5.02,3.24.41.39.66.84,1.01,1.27-.08-.1-.91-1.85-.35-.63.52,1.13,1.01,2.26,1.45,3.43.9,2.44,1.67,5.01,2.27,7.51,3.06,12.72,2.31,25.82,8.99,37.52s22.8,19.79,35.99,13.89c11.67-5.23,21.3-23.99,9.47-33.89-6.46-5.41-15.88-7.52-23.79-9.67s-16.7-4.13-25.17-5.41-16.61-.63-24.8-.67c-2.38-.01-4.75-.02-7.13-.03-.8,0-1.6-.02-2.39,0-2.42.03,1.84.15,1.47.04-1.03-.31-2.35-.25-3.42-.38-12.63-1.55-25.23-3.45-37.83-5.27-28.64-4.12-57.22-8.79-85.9-12.59-.56-.07-1.13-.17-1.69-.25-3.44-.51-8.05.81-9.98,3.96-.44.72-.95,1.39-1.48,2.04-.27.33-2.07,2.17-1.19,1.35.71-.65-1.54,1.17-2.04,1.5-1,.67-2.26,1.23-4.76,1.26s.26,0-.93-.18c-.45-.07-.98-.39-1.39-.58,1.56.72-.24-.19-.61-.43-.41-.26-.79-.62-1.15-.94,1.29,1.12.1.13-.16-.18-.77-.91-1.44-1.87-2.1-2.86-.7-1.04,0,.08.11.27-.24-.45-.48-.91-.68-1.38-.55-1.25-1.08-2.49-1.52-3.78-.21-.63-.94-3.5-.5-1.5-.23-1.05-.42-2.11-.55-3.18-.13-.98-.14-1.96-.25-2.94-.03-.31.08-1.59-.02-.13-.11,1.65.04-.32.14-.66.28-1-.28,1.09-.45.99.17.1-.51.39.46-.57-.22.21,1.14-1.35.75-.96,1.63-1.67,3.9-2.86,6.32-3.39,2.87-.63,5.76-.49,8.36-.08,1.81.28,2.87.62,4.79,2.29,1.75,1.52,3.32,3.15,3.42,5.44-.04-.83-.49,2.59-.29,1.91.25-.83-.32.75-.31.72-.18.44-.38.87-.6,1.28-.29.57-.27.53.08-.1-.01,0,3.46-3.18,1.44-1.63.07-.06,1.89-.37.57-.12-.64.12-1.29.16-1.93.24-.5.06-1.02.07-1.52.07.24,0,1.37.06.14-.04-1.42-.12-2.79-.36-4.18-.59-.26-.04-2.33-.57-1.14-.23.99.28-.77-.27-.95-.35-.52-.22-1.04-.46-1.56-.66-1.22-.48,1.2,1.08.48.31-.44-.48,1.59,2.62,1.72,2.93,1.56,3.75.57,1.66.61.68.03-.6-.12-1.23-.16-1.83-.1-1.65.14,1.47-.02-.21-.04-.46-.28-1.95.04-1.09-.2.53-.18.52.04-.03.4-.85.16-.6-.72.75-1.24.75-3.51,2.96-5.4,2.41.1.03-.79-.93-.91-.99-.26-.14-1.11-1.31-1.02-1.59-.17.49,1.63,3.04,1.94,3.49,1.06,1.55,2.33,2.9,3.77,4.13,10.43,8.88,23.55-7.88,13.12-16.76,2.28,1.94-.98-1.71.95,1.3-.79-1.22-1.31-2.62-2.18-3.79-1.58-2.11-3.79-3.93-6.19-5.03-5.94-2.74-13.23-2.77-18.43,1.55-7.05,5.87-8.83,20.5-3.24,27.95,5.36,7.15,16.75,9,25.07,8.87,11.04-.17,18.49-6.54,21.18-17.07,3.14-12.28-3.41-24.33-13.84-30.85-10.01-6.27-24.78-6.65-35.31-1.36-9.5,4.78-16.19,12.79-16.19,23.6,0,8.17,2.65,16.25,6.78,23.24,5.78,9.77,16.27,15.91,27.77,14.74,8.77-.9,17.95-6.52,22.6-14.12-3.33,1.32-6.66,2.64-9.98,3.96,22.79,3.39,45.59,6.74,68.4,10.06,24.11,3.51,48.39,8.42,72.8,8.54,4.98.02,9.96.05,14.94.08.89,0,1.79.05,2.68.02,1.36-.06-2.53-.38-.87-.01,1.1.24,2.3.25,3.41.42,7.88,1.16,15.72,2.9,23.43,4.9,4.16,1.08,6.1,1.58,10.81,3.39,1.47.56,2.87,1.36,4.34,1.89,1.77.64-1.48-1.12-.18-.12,1.68,1.29-.35-.53-.37-.56.61.81-1.06-1.99-.96-1.72l-.24-1.35c-.13-1.56-.24-1.8-.33-.71-.16.15-.52,1.4-.69,1.67-.87,1.32-1.37,1.32-3.09,1.28-1.86-.04-5.97-2.85-7.27-4.95-2.57-4.17-3.38-9.6-3.82-14.65-.52-5.95-1.66-11.8-3.09-17.59-3.04-12.3-7.89-23.85-20.54-29.06-9.83-4.05-21.48-1.63-29.7,4.9-9.44,7.5-13.11,20.92-15.33,32.18-1.03,5.23-1.95,10.56-3.74,15.6-.61,1.72-2.03,5.06-2.45,5.72-1.24,1.95-1.2,1.99-3.72,3.27-.67.34-3.07,1.22-2.77,1.12-.17.06-.43-.05-.61-.07-1.16-.12-2.29-.53-3.44-.63-1.48-.12-.04-.13.21.17-.72-.88.84.53,1.09.73-1.33-1.07,1.69,1.88.46.5-1.05-1.19-.3-.84.14.43-.51-1.49-1.14-2.93-1.63-4.43-.37-1.15.17.71.19.77-.09-.42-.2-.84-.27-1.27-.15-.89-.33-1.77-.48-2.66-.33-2.06-.57-4.14-.76-6.22-.39-4.22-.57-8.46-.64-12.69-.07-3.89-.03-7.78.02-11.67.03-2.13-.04,1.61,0-.38.02-.69.04-1.39.05-2.08.05-1.95.11-3.89.14-5.84.04-2.91-.3-5.51-2.18-8.02-3.41-4.53-10.38-5.63-14.91-2.08-5.34,4.19-5.24,12.73-5.97,18.9-.98,8.23-1.42,16.55-2.5,24.77-.45,3.45-1.42,6.26-3.17,8.52.11-.14-2.2,2.37-1.11,1.34s-1.22.94-1.15.86c-1.17,1.24-.24.18.42-.11-.61.27-1.3.48-1.89.79,2.41-1.24,1.52-.15.32-.19s-.38-.26.91.11c-2.47-.7.76,1.27-1.17-.35-1.3-1.09,2.21,1.57-.69-.38-.7-.47-1.39-.98-2.07-1.49-1.03-.78-2.03-1.6-3.02-2.43-.69-.58-1.38-1.16-2.06-1.76.81.87.81.82.01-.13-.25-.33-1.03-1.74-.15-.06-.32-.61-.59-1.27-.84-1.91.1.25-1-3.07-.63-1.75s-.44-2.28-.38-1.96c-.68-3.94-.85-7.97-.85-11.96,0-1.71.18-5.28.36-8.18.19-3.1.53-6.28.37-9.38-.29-5.43-2.42-10.98-7.77-13.29-7.15-3.09-14,1.7-15.76,8.66-.28,1.09-.51,2.14,0,.35-.45,1.6-1.06,3.16-1.64,4.71-1.55,4.12-3.29,8.17-5.13,12.16-3.6,7.8-6.13,12.62-11.63,19.16s-13.39,12.72-22.22,14c-3.61.52-7.14-.34-10.7-1.29-4.18-1.12-9.6-2.26-12.96-3.6-6.45-2.59-11.2-9.78-14.93-16.01-1.14-1.9-3.07-5.43-4.27-8.42-.43-1.08-.78-2.18-1.11-3.29-.86-2.88.41,2.23-.18-.86-.19-.99-.38-1.98-.55-2.97-1.37-8.2-2.1-16.5-3.46-24.7-3.09-18.61-7.59-39.5-24.22-50.9-13.41-9.19-29.93-10.64-44.89-3.97-8.9,3.97-16.29,9.8-22.08,17.6-2.24,3.02-4.35,6.13-6.68,9.08-.39.5-.94,1.04-1.29,1.58-2.49,3.79,5.21-3.73,7.69-1.62-1.01-.86-3.13-1.25-4.41-1.66-8.63-2.8-16.3.48-20.07,8.8-1.52,3.36-2.69,6.92-3.93,10.39-4.24,11.9-8.08,23.95-11.57,36.1-3.1,10.79-6.66,22.08-7.33,33.37-.3,5.09-.15,10.18,3.02,14.46,3.99,5.39,12.5,6.14,18.67,6.41,9.19.4,18.66-.73,27.01-4.84,6.76-3.33,12.28-8.41,17.61-13.64,6.27-6.16,11.53-13.1,15.29-21.1,3.41-7.27,5.13-15.35,6.99-23.14,3.35-14.06,3.71-27.97,3.76-42.29.05-12.77.18-25.54.3-38.32.12-12.23.25-24.46.4-36.68.05-3.88.13-7.75.1-11.63-.04-6.85-.55-16.02,2.88-21.33.47-.73,1.08-1.31,1.62-1.98-1,1.24,1.41-.6.17,0,.53-.26,1.18-.46,2.07-.64,3.21-.62-.82-.08,1.03-.13.55-.01,2.44-.21.93.08.29-.06,1.55.27.25.15-.66-.06-1.43-2.66-.52-.05,4.51,12.94,24.28,5.07,19.78-7.85h0Z"/>
    </g>
  </g>
</svg>