<?xml version="1.0" encoding="UTF-8"?>
<svg id="_レイヤー_2" data-name="レイヤー 2" xmlns="http://www.w3.org/2000/svg" viewBox="0 0 427.58 239.43">
  <defs>
    <style>
      .cls-1 {
        fill: none;
        opacity: .49;
        stroke: #040000;
        stroke-miterlimit: 10;
        stroke-width: 21px;
      }
    </style>
  </defs>
  <g id="_レイヤー_15" data-name="レイヤー 15">
    <path class="cls-1" d="M124.95,26.97s-2.58-5.38-4.35-8.76c0,0-.58-2.66-3.69-5.37-2.79-1.72-5.41-2.79-9.92-2.16-5.02.8-7.93,3.34-9.89,5.86-1.97,2.05-3.72,5.6-4.43,8.59-.71,2.99-1.1,5.27-1.65,15.68,0,16.25.48,35.95,0,35.95l-.33,54.52s-1.16,31.73-3.82,41.99c-4.4,18.01-9.59,24.95-18.62,37.02,0,0-7.63,10.65-24.77,14.72-12.4,2.57-29.97-1.81-29.97-1.81l27.97-84.84s18.69-5.95,23.43-12.66c3.71-4.04,7.53-9.53,13.95-12.9,6.42-3.38,15.86-4.75,15.86-4.75,0,0,13.55,1.64,19.78,5.65,9.93,5.83,15.43,15.92,18.77,26.87s4.33,34.43,7.46,44.74,9.39,30.44,29.07,38.61c18.4,8.24,30.63,4.89,41.1.21,16.01-9.15,26.95-31.38,29.86-36.57,2.9-5.19,6.86-23.92,8.05-19.67,0,0-1.13,33.91,2.94,42.46,1.93,8.31,11.53,14.73,21.29,14.62,12-.64,17.21-45.18,17.21-45.18,0,0,.7-13.33,1.15-11.8,2.82,1.88-6.86,58.07,12.86,57.22,20.94.44,23.68-21.69,23.68-21.69,3.75-14.14,2.82-22.63,9.93-33.84,3.3-3.16,5.64-8.91,15-9.93,13.33,0,17.83,10.73,21.56,17.41,1.55,5.27,4.39,19.82,5.49,33.42,4.06,10.72,10.25,16.52,15.44,17.58,14,2.12,14.65-3.75,18.06-7.42,2.44-12.81,3.06-16.22,3.06-16.22l-60.94-93.54-43.1,87.47c-.65.65,39.72.21,39.72.21h10.88c-87.6-69.61-110.46-95.05-110.46-95.05l-50.58,33.41s-32.71,11.4-32.71,22.74c0,8.99-.03,12.54,4.76,19.6,5.37,7.91,11.07,11.49,17.49,10.63,8.32-1.11,13.47-5.46,15.52-8.2,2.41-3.22,8.86-12.63,6.76-21.04s-3.54-6.98-7.42-9.64-3.1-4.54-9.3,2.55-9.19,11.74-7.42,18.83.55,11.08,2.77,15.28,7.86-10.41,8.86-16.84.89-8.86,1.11-12.85"/>
  </g>
</svg>