<?xml version="1.0" encoding="UTF-8"?>
<svg id="_レイヤー_2" data-name="レイヤー 2" xmlns="http://www.w3.org/2000/svg" viewBox="0 0 427.52 239.27">
  <defs>
    <style>
      .cls-1 {
        fill: none;
        opacity: .49;
        stroke: #040000;
        stroke-miterlimit: 10;
        stroke-width: 21px;
      }
    </style>
  </defs>
  <g id="_レイヤー_15" data-name="レイヤー 15">
    <path class="cls-1" d="M124.55,26.94s-2.59-5.37-4.37-8.75c0,0-.58-2.66-3.7-5.36-2.8-1.72-5.42-2.78-9.93-2.14-5.02.81-7.93,3.35-9.88,5.88-1.97,2.05-3.71,5.6-4.41,8.6-.7,2.99-1.09,5.27-1.62,15.68.03,16.25.55,35.95.07,35.95l-.22,54.52s-1.1,31.73-3.73,42c-4.36,18.02-9.55,24.96-18.55,37.06,0,0-7.61,10.66-24.74,14.77-12.4,2.6-29.97-1.75-29.97-1.75l27.8-84.89s18.68-5.99,23.4-12.71c3.7-4.05,7.51-9.54,13.93-12.93,6.42-3.39,15.85-4.79,15.85-4.79,0,0,13.56,1.62,19.79,5.61,9.94,5.81,15.46,15.89,18.83,26.83s4.39,34.43,7.55,44.73c3.16,10.3,9.45,30.42,29.15,38.55,18.42,8.2,30.64,4.83,41.1.13,15.99-9.18,26.89-31.43,29.78-36.63,2.89-5.19,6.81-23.94,8.01-19.68,0,0-1.06,33.91,3.02,42.45,1.95,8.3,11.56,14.71,21.31,14.58,12-.66,17.12-45.21,17.12-45.21,0,0,.67-13.33,1.13-11.81,2.82,1.87-6.74,58.08,12.97,57.19,20.94.4,23.64-21.73,23.64-21.73,3.72-14.14,2.78-22.64,9.87-33.86,3.3-3.17,5.62-8.92,14.98-9.96,13.33-.03,17.85,10.69,21.6,17.37,1.56,5.27,4.43,19.81,5.55,33.41,4.08,10.71,10.29,16.49,15.48,17.55,14,2.09,14.65-3.77,18.04-7.45,2.42-12.82,3.03-16.22,3.03-16.22l-61.13-93.42-42.93,87.55c-.65.65,39.72.13,39.72.13l10.88-.02"/>
  </g>
</svg>