<?xml version="1.0" encoding="UTF-8"?>
<svg id="_レイヤー_1" data-name="レイヤー 1" xmlns="http://www.w3.org/2000/svg" viewBox="0 0 115 104">
  <defs>
    <style>
      .cls-1 {
        fill: #a39482;
      }
    </style>
  </defs>
  <path class="cls-1" d="M10.7,104v-15.86c-1.56-.43-2.86-1.26-3.9-2.47-1.04-1.21-1.65-2.69-1.82-4.42L.3,31.2h3.25c1.99,0,3.75.69,5.26,2.08s2.36,3.08,2.53,5.07l3.12,34.45h22.23c2.86,0,5.31,1.02,7.34,3.06,2.04,2.04,3.06,4.49,3.06,7.34v5.2h-5.2v15.6h-7.8v-15.6h-15.6v15.6h-7.8ZM52.3,104v-41.6h-31.2c0-2.86,1.02-5.31,3.06-7.34,2.04-2.04,4.49-3.06,7.35-3.06h52c2.86,0,5.31,1.02,7.35,3.06,2.04,2.04,3.06,4.48,3.06,7.34h-31.2v41.6h-10.4ZM31.5,41.6v-5.2c0-5.72,2.04-10.62,6.11-14.69,4.07-4.07,8.97-6.11,14.69-6.11V0h10.4v15.6c5.72,0,10.62,2.04,14.69,6.11,4.07,4.07,6.11,8.97,6.11,14.69v5.2H31.5ZM43.33,31.2h28.34c-.95-1.65-2.21-2.93-3.77-3.83-1.56-.91-3.29-1.36-5.2-1.36h-10.4c-1.91,0-3.64.45-5.2,1.36-1.56.91-2.82,2.19-3.77,3.83ZM73.1,104v-15.6h-5.2v-5.2c0-2.86,1.02-5.31,3.05-7.34,2.04-2.04,4.49-3.06,7.35-3.06h22.36l3.12-34.45c.17-1.99,1-3.68,2.47-5.07,1.47-1.39,3.21-2.08,5.2-2.08h3.25l-4.55,50.05c-.17,1.73-.8,3.21-1.88,4.42-1.08,1.21-2.4,2.04-3.97,2.47v15.86h-7.8v-15.6h-15.6v15.6h-7.8Z"/>
</svg>