<?xml version="1.0" encoding="UTF-8"?>
<svg id="_レイヤー_2" data-name="レイヤー 2" xmlns="http://www.w3.org/2000/svg" viewBox="0 0 33.42 21.12">
  <defs>
    <style>
      .cls-1 {
        fill: #373741;
      }
    </style>
  </defs>
  <g id="img_illust" data-name="img/illust">
    <g>
      <path class="cls-1" d="M32.8,5.32h-.93v12.51c0,.95-.78,1.73-1.73,1.73H5.32v.93c0,.34.28.62.62.62h26.85c.34,0,.62-.28.62-.62V5.95c0-.34-.28-.62-.62-.62Z"/>
      <path class="cls-1" d="M30.14,2.66h-.93v12.51c0,.95-.78,1.73-1.73,1.73H2.66v.93c0,.34.28.62.62.62h26.85c.34,0,.62-.28.62-.62V3.28c0-.34-.28-.62-.62-.62Z"/>
      <path class="cls-1" d="M27.48,0H.62c-.34,0-.62.28-.62.62v14.55c0,.34.28.62.62.62h26.85c.34,0,.62-.28.62-.62V.62c0-.34-.28-.62-.62-.62ZM14.05,13.29c-2.98,0-5.39-2.41-5.39-5.39s2.41-5.39,5.39-5.39,5.39,2.41,5.39,5.39-2.41,5.39-5.39,5.39Z"/>
      <polygon class="cls-1" points="13.23 11.44 13.23 9.84 11.42 9.84 11.42 8.64 13.23 8.64 13.23 8.14 11.42 8.14 11.42 6.95 12.96 6.95 11.33 4.35 13.08 4.35 14.05 5.89 15.02 4.35 16.77 4.35 15.13 6.95 16.68 6.95 16.68 8.14 14.87 8.14 14.87 8.64 16.68 8.64 16.68 9.84 14.87 9.84 14.87 11.44 13.23 11.44"/>
    </g>
  </g>
</svg>