<?xml version="1.0" encoding="UTF-8"?>
<svg id="_レイヤー_1" data-name="レイヤー 1" xmlns="http://www.w3.org/2000/svg" viewBox="0 0 140 104">
  <defs>
    <style>
      .cls-1 {
        fill: #a39482;
      }
    </style>
  </defs>
  <path class="cls-1" d="M41.43,98.72c-3.9,0-7.75-.95-11.56-2.86-3.81-1.9-6.88-4.42-9.22-7.53,2.25,0,4.55-.89,6.88-2.66,2.34-1.77,3.51-4.35,3.51-7.73,0-4.33,1.52-8.01,4.55-11.04,3.03-3.03,6.71-4.55,11.04-4.55s8.01,1.52,11.04,4.55,4.55,6.71,4.55,11.04c0,5.71-2.03,10.61-6.1,14.67s-8.96,6.1-14.67,6.1ZM41.43,88.33c2.86,0,5.3-1.02,7.34-3.05s3.05-4.48,3.05-7.34c0-1.47-.5-2.71-1.49-3.7-1-1-2.23-1.49-3.7-1.49s-2.71.5-3.7,1.49c-1,1-1.49,2.23-1.49,3.7,0,1.99-.24,3.81-.71,5.45s-1.1,3.2-1.88,4.68c.43.17.87.26,1.3.26h1.3ZM71.3,67.55l-14.29-14.29L103.51,6.78c.95-.95,2.14-1.45,3.57-1.49,1.43-.04,2.66.45,3.7,1.49l7.01,7.01c1.04,1.04,1.56,2.25,1.56,3.64s-.52,2.6-1.56,3.64l-46.49,46.49Z"/>
</svg>