<?xml version="1.0" encoding="UTF-8"?>
<svg id="_レイヤー_2" data-name="レイヤー 2" xmlns="http://www.w3.org/2000/svg" viewBox="0 0 25.71 25.71">
  <defs>
    <style>
      .cls-1 {
        fill: #373741;
      }
    </style>
  </defs>
  <g id="img_illust" data-name="img/illust">
    <path class="cls-1" d="M12.86,25.71c-1.78,0-3.45-.34-5.01-1.01-1.56-.67-2.93-1.59-4.08-2.75-1.16-1.16-2.07-2.52-2.75-4.08-.67-1.56-1.01-3.24-1.01-5.01s.34-3.45,1.01-5.01c.68-1.56,1.59-2.93,2.75-4.08,1.16-1.16,2.52-2.07,4.08-2.75s3.24-1.01,5.01-1.01,3.45.34,5.01,1.01,2.93,1.59,4.08,2.75c1.16,1.16,2.07,2.52,2.75,4.08.67,1.56,1.01,3.24,1.01,5.01,0,.58-.03,1.15-.1,1.7s-.17,1.1-.32,1.64c-.3-.34-.65-.63-1.04-.87s-.83-.4-1.3-.48c.06-.32.11-.65.14-.98s.05-.67.05-1.01c0-2.87-1-5.3-2.99-7.3-1.99-1.99-4.43-2.99-7.3-2.99s-5.3,1-7.3,2.99c-1.99,1.99-2.99,4.43-2.99,7.3s1,5.3,2.99,7.3c1.99,1.99,4.42,2.99,7.3,2.99,1.09,0,2.14-.16,3.13-.48s1.91-.77,2.75-1.35c.26.36.57.69.95.96s.78.49,1.21.64c-1.09.88-2.32,1.56-3.68,2.06s-2.81.74-4.36.74ZM22.18,20.57c-.45,0-.83-.16-1.14-.47-.31-.31-.47-.69-.47-1.14s.16-.83.47-1.14.69-.47,1.14-.47.83.16,1.14.47.47.69.47,1.14-.16.83-.47,1.14c-.31.31-.69.47-1.14.47ZM17.1,18.9l-5.53-5.53v-6.94h2.57v5.91l4.76,4.76-1.8,1.8Z"/>
  </g>
</svg>