<?xml version="1.0" encoding="UTF-8"?>
<svg id="_レイヤー_1" data-name="レイヤー 1" xmlns="http://www.w3.org/2000/svg" viewBox="0 0 115 104">
  <defs>
    <style>
      .cls-1 {
        fill: #a39482;
      }
    </style>
  </defs>
  <path class="cls-1" d="M36.74,98.72v-10.38h10.38v-10.38H15.97c-2.86,0-5.3-1.02-7.33-3.05-2.03-2.03-3.05-4.48-3.05-7.33V15.66c0-2.86,1.02-5.3,3.05-7.33,2.03-2.03,4.48-3.05,7.33-3.05h83.06c2.86,0,5.3,1.02,7.33,3.05,2.03,2.03,3.05,4.48,3.05,7.33v51.91c0,2.86-1.02,5.3-3.05,7.33-2.03,2.03-4.48,3.05-7.33,3.05h-31.15v10.38h10.38v10.38h-41.53ZM15.97,67.57h83.06V15.66H15.97v51.91ZM15.97,67.57V15.66v51.91Z"/>
</svg>